<svg xmlns="http://www.w3.org/2000/svg" width="710.145" height="583.754" viewBox="0 0 710.145 583.754">
  <g id="undraw_organizing_projects_re_9p1k" transform="translate(-68.517 0)">
    <path id="Path_837" data-name="Path 837" d="M995.812,686.88c.953-28.439-12.06-56.7-37.376-66.387,6.032,29.065.912,61.761-14.168,90.465-5.873,11.18-13.5,23.162-11.4,34.566,1.3,7.1,6.345,12.594,12.4,16.08s13.106,5.219,20.071,6.918l1.234,1.211C982.111,743.779,994.859,715.319,995.812,686.88Z" transform="translate(-253.309 -188.147)" fill="#f2f2f2"/>
    <path id="Path_838" data-name="Path 838" d="M958.086,621.024c12.691,17.732,19.166,40.47,17.761,63.854a51.44,51.44,0,0,1-2.923,15.177,33.522,33.522,0,0,1-8.86,12.786c-3.62,3.374-7.658,6.457-10.509,10.544a18.158,18.158,0,0,0-3,13.89c1.063,5.683,4.181,10.353,7.406,14.791,3.58,4.927,7.386,9.977,8.223,16.443.1.783,1.347.407,1.245-.375-1.457-11.25-11.207-17.792-14.753-27.962-1.655-4.746-1.8-10.225,1.216-15.154,2.64-4.31,6.8-7.492,10.492-10.881a35.979,35.979,0,0,0,9.089-12.242,48.261,48.261,0,0,0,3.486-15.089,103.582,103.582,0,0,0-2.692-33.339,96.834,96.834,0,0,0-15.208-33.375c-.438-.613-1.408.323-.973.931Z" transform="translate(-253.309 -188.147)" fill="#fff"/>
    <path id="Path_839" data-name="Path 839" d="M976.706,677.245a20.135,20.135,0,0,0,15.488-17.484c.063-.81-1.192-.769-1.255.042A18.641,18.641,0,0,1,976.5,676.041a.61.61,0,0,0,.2,1.2Z" transform="translate(-253.309 -188.147)" fill="#fff"/>
    <path id="Path_840" data-name="Path 840" d="M966.093,711.343a27.075,27.075,0,0,1-11.444-19c-.1-.783-1.349-.407-1.245.375a28.153,28.153,0,0,0,11.952,19.742c.626.426,1.359-.692.737-1.116Z" transform="translate(-253.309 -188.147)" fill="#fff"/>
    <path id="Path_841" data-name="Path 841" d="M969.938,642.455a9.154,9.154,0,0,1-8.89-.612c-.619-.435-1.352.684-.737,1.116a10.249,10.249,0,0,0,9.83.7.761.761,0,0,0,.521-.789.545.545,0,0,0-.724-.414Z" transform="translate(-253.309 -176.128)" fill="#fff"/>
    <path id="Path_842" data-name="Path 842" d="M868.928,669.8c.377.284.755.568,1.131.862A101.685,101.685,0,0,1,884.015,683.5c.334.358.667.726.989,1.094a110.234,110.234,0,0,1,22.335,39.962,115.861,115.861,0,0,1,4.123,18.395c1.223,8.692,1.837,18.313,5.831,25.474a18.152,18.152,0,0,0,1.371,2.157l46.1.783c.113-.051.225-.092.339-.144l1.827.116c-.022-.331-.053-.673-.075-1-.012-.192-.035-.385-.047-.577-.011-.128-.023-.256-.026-.374,0-.043-.008-.085-.013-.118,0-.117-.018-.224-.022-.331-.165-1.912-.34-3.824-.536-5.737,0-.011,0-.011-.007-.021-1.507-14.564-4.273-28.957-9.22-42.16-.149-.4-.3-.8-.466-1.2a103.132,103.132,0,0,0-8.3-16.951,88.694,88.694,0,0,0-5.866-8.409,73.2,73.2,0,0,0-19.728-17.337c-15.153-9.11-33.766-12.818-52.281-7.725C869.867,669.525,869.4,669.656,868.928,669.8Z" transform="translate(-253.309 -188.147)" fill="#f2f2f2"/>
    <path id="Path_843" data-name="Path 843" d="M868.939,670.39c22,4.942,41.561,17.231,54.552,34.768a40.428,40.428,0,0,1,6.655,12.6,27.288,27.288,0,0,1-.046,14.5c-1.144,4.606-2.835,9.258-2.867,13.907a14.416,14.416,0,0,0,5.8,11.732c4.4,3.409,9.995,4.847,15.544,6.054,6.162,1.341,12.6,2.632,17.272,6.736.566.5,1.437-.528.872-1.024-8.134-7.141-20.729-5.886-30.051-10.988-4.35-2.381-7.816-6.2-8.148-11.55-.291-4.679,1.449-9.478,2.647-14.137a29.571,29.571,0,0,0,.579-14.255,37.745,37.745,0,0,0-6.1-12.883,88.277,88.277,0,0,0-22.669-22.15,97.482,97.482,0,0,0-33.747-14.573c-.76-.171-1.048,1.086-.292,1.255Z" transform="translate(-253.309 -188.147)" fill="#fff"/>
    <path id="Path_844" data-name="Path 844" d="M919.6,699.191c6.191-6.264,7.477-15.632,3.042-21.883-.437-.616-1.521.175-1.083.792,4.155,5.857,2.917,14.5-2.871,20.356C918.083,699.072,919,699.8,919.6,699.191Z" transform="translate(-253.309 -188.147)" fill="#fff"/>
    <path id="Path_845" data-name="Path 845" d="M930.98,729.965a28.747,28.747,0,0,1-21.674-6.6c-.568-.495-1.44.53-.872,1.024a29.922,29.922,0,0,0,22.574,6.825c.813-.076.78-1.32-.029-1.244Z" transform="translate(-253.309 -188.147)" fill="#fff"/>
    <path id="Path_846" data-name="Path 846" d="M892.452,678.481a11.3,11.3,0,0,1-8.226,4.964c-.812.066-.778,1.309.029,1.244a12.656,12.656,0,0,0,9.11-5.472.634.634,0,0,0-.02-.88.658.658,0,0,0-.892.144Z" transform="translate(-253.309 -188.147)" fill="#fff"/>
    <path id="Path_847" data-name="Path 847" d="M855.217,654.584c.1-.109-.638-.2-2-.28v-45.72h-66v3.68h-29.71a13.155,13.155,0,0,0-13.14,13.14v18.91a13.149,13.149,0,0,0,13.14,13.14l30.45.04,13.37.02h.92l13.38.02,37.37.05h3.22C856.687,657.054,854.767,655.114,855.217,654.584Z" transform="translate(-231.225 -176.518)" fill="#3f3d56"/>
    <path id="Path_848" data-name="Path 848" d="M855.927,655.433c-2.182,3.183-3.951,3.066-5.5,1.006a16.463,16.463,0,0,1-1.95-3.824c-4.7-12.06-7.78-39.727-16.649-30.053-1.751,1.911-3.53,3.806-5.315,5.68-3.318,3.49-6.783,7.277-10.217,10.623,0,.01.078-.362.066-.354-1.693,1.657-.418-12.673-1.088-16.7-.142-.871-.375-1.26-.745-.912-.029-.392-.047-.782-.044-1.178a16.457,16.457,0,0,1,.094-1.864c.056-.569.133-1.145.241-1.725l29-155.062a19.434,19.434,0,0,1,16.782-15.7,20.067,20.067,0,0,1,5.832.206l5.278.987a19.164,19.164,0,0,1,5.933,2.168l.01,0a19.42,19.42,0,0,1,9.553,20.454Z" transform="translate(-236.128 -172.154)" fill="#3f3d56"/>
    <path id="Path_849" data-name="Path 849" d="M441.008,616.176l-13.614-6.511,18.7-56.9,20.093,9.61Z" transform="translate(-40.758 -60.564)" fill="#a0616a"/>
    <path id="Path_850" data-name="Path 850" d="M699.575,734.586c-.99.62-1.98,1.23-2.98,1.84-1.99,1.22-4,2.42-6.01,3.6-1.01.59-2.03,1.18-3.04,1.76v.03l-.06.01-.02.01-1.54.38-2.21-5.84-1.02-2.69-1.44-3.81-2.64-6.97-13.9-36.7,21.61-5.33.81,3.31h.01l.4,1.64,7.55,30.62,1.54,6.26.05.19.93,3.74.8,3.24.89,3.62Z" transform="translate(-215.754 -188.147)" fill="#a0616a"/>
    <path id="Path_851" data-name="Path 851" d="M828.487,605.7c-1.37,2.2-2.77,4.39-4.18,6.56q-3.93,6.06-8.07,11.94c0,.01-.01.01-.02.02a28.238,28.238,0,0,1-5.3,3.87c-.08.06-.17.1-.25.15a19.535,19.535,0,0,1-4.46,1.79l-1.69.42c-2.02.48-4.02.89-6.01,1.25-3.54.63-7.04,1.08-10.52,1.36-.28.03-.56.05-.84.07-14.31,1.05-28.24-.64-42.78-3.41-7.18-1.36-14.51-2.99-22.1-4.68-2.48-.56-4.97-1.11-7.49-1.66-.19-.04-.39-.09-.59-.13-3.6-.79-7.26-1.57-11.01-2.34-4.72-.97-9.59-1.91-14.65-2.8l.36,7.13a53.662,53.662,0,0,0,3.38,16.03c2.16,6.32,3.87,11.32.26,21.73l-1.74,5.04a17.213,17.213,0,0,1-1.77,15.23l-.35.53,14.51,36.71.94,2.38h-7.43l-9.14.01h-15.49l-22.35-44.84-1.07-2.14v-.11l2.31-86.17c.03-.76.09-1.53.19-2.29a26.2,26.2,0,0,1,9.97-17.64,25.23,25.23,0,0,1,18.79-5.14l7.65.99,15.63,2.02,11.01,1.43.22.03,32.47,4.2,2.33-9.5.43-.16,13.67-5.01,47.28-17.33.12-.04,3.11-1.14.37.6c.11.18.22.36.32.54a92.671,92.671,0,0,1,7.47,17.34,272.2,272.2,0,0,1,7.85,29.97q.135.66.24,1.2l.03.11c.03.17.05.28.06.31C831.247,594.674,830.487,600.214,828.487,605.7Z" transform="translate(-225.114 -188.147)" fill="#2f2e41"/>
    <path id="Path_852" data-name="Path 852" d="M830.482,573.948c-.15-.64-.34-1.29-.54-1.92a136.825,136.825,0,0,0-5.54-14.02c-2.36-5.2-5.19-10.77-8.56-16.8q-2.445-4.38-5.26-9.11-1.41-2.37-2.93-4.83a2.527,2.527,0,0,0-.13-.22l-.29-.48-46.78,6.26-17.42,2.33-1.04,8.68-.25,2.15c-.01,0-.01,0,0,.01l-.7,5.86v.01l-.93,7.74-.08-.01-25.85-3.35-26.64-3.45-14.31-1.85a25.215,25.215,0,0,0-18.79,5.14,26.211,26.211,0,0,0-9.97,17.64c-.09.7-.15,1.42-.18,2.13l-13.5,31.99a206.4,206.4,0,0,0-15.26,60.04l-9.9,31.65,1.41.13,20.98,1.95,5.54.52,12.2-17.81c1.39-2.03,2.71-4.12,3.94-6.26a95.069,95.069,0,0,0,5.39-10.84l26.39-62.8q3.06.525,6.06,1,13.875,2.25,26.64,3.67c27.67,3.09,51.63,3.33,72.96.71q8.985-1.095,17.37-2.88,3.075-.645,6.07-1.39c.47-.11.93-.22,1.39-.34a25.519,25.519,0,0,0,17.85-16.68,26.038,26.038,0,0,0,.66-14.57Z" transform="translate(-223.046 -188.147)" fill="#2f2e41"/>
    <path id="Path_853" data-name="Path 853" d="M612.652,734.468l-14.73-7.06-2.31-1.11-3.69,9.06-25.76,5.67a6.112,6.112,0,0,0-1,11.63l25.17,10.27,7.99-7.19-1.96,9.65,9.48,3.87,10.39-33.07Z" transform="translate(-205.069 -188.147)" fill="#2f2e41"/>
    <path id="Path_854" data-name="Path 854" d="M535.881,592.93l.94,2.38h-.94Z" transform="translate(-50.552 -60.564)" fill="#2f2e41"/>
    <path id="Path_855" data-name="Path 855" d="M527.177,547.444c0-5.36-1.8-9.71-4.01-9.72H356.677c-2.22.01-4.01,4.36-4.02,9.72V768.087a2,2,0,0,1-1.809,1.994q-2.425.233-4.851.433c-.04,0-.08.01-.12.01-.88.08-1.76.14-2.64.21h-.01q-.679-1.255-1.342-2.533a2.012,2.012,0,0,1-.228-.929V534.834c0-1.48.06-2.97.16-4.44a56.878,56.878,0,0,1,.75-6.02c1.69-9.29,5.51-15.58,9.85-15.6h175a4.681,4.681,0,0,1,1.84.39,7.173,7.173,0,0,1,2.27,1.59,14.068,14.068,0,0,1,2.23,3.05c2.14,3.77,3.67,9.39,4.21,15.93,0,.06.01.12.01.18.14,1.62.21,3.27.2,4.92l.14,21.43.09,12.78.27,40.1.1,14.24.44,146.2h0a2,2,0,0,1-2,2h-8.04a2,2,0,0,1-2-2Z" transform="translate(-167.295 -188.147)" fill="#3f3d56"/>
    <path id="Path_856" data-name="Path 856" d="M241.2,321.74,229.622,372.7l-7.4,8.106h-5.339l22-92.646,1.088,15.739v.011Z" transform="translate(-16.534 -31.634)" fill="#3f3d56"/>
    <path id="Path_857" data-name="Path 857" d="M464.232,501.4l-67.94-.43-6.03-.04-4.3-.03-5.01-.03h-.04a2.765,2.765,0,0,0-1.94.8l-8.46,8.46a2.184,2.184,0,0,0-.45.64.98.98,0,0,0-.13.22,2.824,2.824,0,0,0,2.54,3.94h88.01a2.8,2.8,0,0,0,2.52-1.6l.69-1.5,1.42-3.05,1.61-3.44a2.741,2.741,0,0,0,.26-1.17,2.785,2.785,0,0,0-2.75-2.77Z" transform="translate(-183.774 -163.454)" fill="#3f3d56"/>
    <path id="Path_858" data-name="Path 858" d="M463.692,511.825,463,513.331a2.8,2.8,0,0,1-2.513,1.6H372.471a2.819,2.819,0,0,1-2.536-3.938.841.841,0,0,1,.127-.22Z" transform="translate(-183.697 -163.836)" opacity="0.17"/>
    <path id="Path_859" data-name="Path 859" d="M239.975,303.894v.011l-18.842,76.9h-4.25l22-92.646Z" transform="translate(-16.508 -31.634)" opacity="0.17"/>
    <path id="Path_860" data-name="Path 860" d="M430.392,445.568l-26.67-202.91a2.892,2.892,0,0,0-1.1-1.92l-18.36-22.98-1.65-1.27a2.929,2.929,0,0,0-2.14-.57l-2.76.37a2.894,2.894,0,0,0-2.5,3.24h0l27.64,210.24v.01l1.69,12.86,2.01,15.27v.02l3.12,23.76a2.832,2.832,0,0,0,1.25,2.02,2.873,2.873,0,0,0,2.33.42l1.75-.44a2.939,2.939,0,0,0,1.66-1.14l.78-1.11.36-.52,12.08-33.3A2.876,2.876,0,0,0,430.392,445.568Z" transform="translate(-183.475 -127.584)" fill="#3f3d56"/>
    <path id="Path_861" data-name="Path 861" d="M384.258,217.759l33.548,263.164-.364.515-.777,1.107a2.929,2.929,0,0,1-1.66,1.141l-1.753.441a2.906,2.906,0,0,1-3.579-2.438L375.217,219.531a2.9,2.9,0,0,1,2.493-3.248l2.767-.364a2.855,2.855,0,0,1,2.131.573Z" transform="translate(-183.205 -127.584)" opacity="0.17"/>
    <path id="Path_862" data-name="Path 862" d="M217.951,97.7l17.8,25.411,21.16,161-11.472,22.759Z" transform="translate(-16.975 -9.912)" fill="#6c63ff"/>
    <path id="Path_863" data-name="Path 863" d="M600.559,642.325l-12.209.229,33.934-117.879,12.209,3.771Z" transform="translate(-59.616 -60.564)" fill="#3f3d56"/>
    <path id="Path_864" data-name="Path 864" d="M847.927,770.134l-12.2-.23-33.48-112.39-.46-1.48,7.83-2.42c1.55.03,3.16.05,4.82.07l1.19,3.85Z" transform="translate(-232.202 -188.147)" fill="#3f3d56"/>
    <path id="Path_865" data-name="Path 865" d="M698.047,723.4l-15.434,5.348-2.422.837,3.753,9.034-14.315,22.154a6.112,6.112,0,0,0,7.473,8.968l25.111-10.413.618-10.731,5.4,8.236,9.459-3.92L701.8,722.106Z" transform="translate(-217.126 -188.147)" fill="#2f2e41"/>
    <path id="Path_866" data-name="Path 866" d="M604.368,392.53a10.962,10.962,0,0,0,16.393,3.716l32.455,21.545.062-20.243-30.83-17.356a11.022,11.022,0,0,0-18.081,12.338Z" transform="translate(-209.646 -152.578)" fill="#a0616a"/>
    <path id="Path_867" data-name="Path 867" d="M628.615,401.886l15.142-17.227,61.656,36.6,81.731-7.485a27.638,27.638,0,0,1,30.04,30.069h0a27.667,27.667,0,0,1-30.067,24.972l-92.049-8.52Z" transform="translate(-222.913 -155.384)" fill="#e6e6e6"/>
    <path id="Path_868" data-name="Path 868" d="M818.312,402.152l-.142-.178-38.63-3.812-26.1,45.976c-22.436,27.429-6.133,46.344-5.157,49.157L740.495,529.2l1.745,12.017.872,3.57,88.9,46.45L813.737,530.37l17.84-55.509a78.2,78.2,0,0,0-13.265-72.709Z" transform="translate(-229.194 -163.9)" fill="#e6e6e6"/>
    <path id="Path_869" data-name="Path 869" d="M860.637,361.694c.02.49.03.98.03,1.46a33.569,33.569,0,0,1-43.98,31.86l-6.17-2.01c-.05-.02-.11-.03-.16-.05l-10.17-3.32a6.948,6.948,0,0,1,.02-1.29c-15.17-6.48,5.8-27.77,11.01-43.76.81-2.49-27.04-.63-25.72-2.76-.29-.15-.58-.3-.85-.45a41.215,41.215,0,0,1,45.52-17.74c.22.05.45.12.67.18,19.76.49,30.14,14.26,30.14,32.14A49.039,49.039,0,0,1,860.637,361.694Z" transform="translate(-232.877 -148.269)" fill="#2f2e41"/>
    <path id="Path_870" data-name="Path 870" d="M843.517,368.734a32.217,32.217,0,0,1-40.61,20.63q-1.38-.45-2.7-1.02a32.2,32.2,0,0,1-17.93-39.58,31.879,31.879,0,0,1,3.22-6.94,32.206,32.206,0,0,1,58.02,26.91Z" transform="translate(-231.344 -148.362)" fill="#a0616a"/>
    <path id="Path_871" data-name="Path 871" d="M810.517,393c-.05-.02-.11-.03-.16-.05l-10.17-3.32a6.949,6.949,0,0,1,.02-1.29c.3-3.348,2.653-6.855,5.808-10.641a19.489,19.489,0,0,0-8.568-30.949l-.26-.091a90.173,90.173,0,0,1-11.69-4.84c-.29-.15-.58-.3-.85-.45-2.54-1.4-4.38-2.8-5.19-4.14a29.747,29.747,0,0,1,37.51-19.06l5.9,1.92a29.635,29.635,0,0,1,17.2,14.64c4.16,2.98,7.44,7.36,10.01,12.53C863,373.2,838.057,401.844,810.517,393Z" transform="translate(-232.058 -147.806)" fill="#2f2e41"/>
    <path id="Path_872" data-name="Path 872" d="M829.987,549.884a8.7,8.7,0,0,1-5.579,8.12,8.471,8.471,0,0,1-2.431.54c-.22.02-.45.03-.67.03h-16.79v81.46c-.25.33-.51.66-.77.99-1.44,1.84-2.9,3.68-4.38,5.49-.32.4-.64.79-.95,1.18-.49.59-.97,1.18-1.45,1.76-.17.2-.33.39-.49.59-.82.98-1.64,1.96-2.48,2.94v.01c-.01.01-.01.01-.01.02l-.42.48c-.67.79-1.34,1.59-2.03,2.38a8.36,8.36,0,0,1-2.44-2.05,8.077,8.077,0,0,1-1.06-1.64c-.01-.01-.01-.02-.02-.04a.5.5,0,0,1-.03-.07,8.543,8.543,0,0,1-.84-3.75v-89.75h-37.64a8.385,8.385,0,0,1-3.24-.63,8.65,8.65,0,0,1-5.22-6.08v-.01a8.559,8.559,0,0,1,.7-5.86c-.01-.01-.01-.01,0-.01a7.944,7.944,0,0,1,1.53-2.13v-.01c0-.01,0-.01.01-.02a8.708,8.708,0,0,1,6.22-2.62h71.8A8.685,8.685,0,0,1,829.987,549.884Z" transform="translate(-228.735 -174.88)" fill="#3f3d56"/>
    <path id="Path_873" data-name="Path 873" d="M877.8,381.756A27.215,27.215,0,0,0,846.043,403.5h0a27.22,27.22,0,0,0,16.719,30.3l-8.182,43.752,17.075,3.193,18.094-96.759Z" transform="translate(-237.041 -155.784)" fill="#3f3d56"/>
    <circle id="Ellipse_54" data-name="Ellipse 54" cx="14" cy="14" r="14" transform="translate(604.356 174.936)" fill="#2f2e41"/>
    <path id="Path_874" data-name="Path 874" d="M1016.42,375.782c-6.074,2.027-12.569,2.372-18.972,2.482-18.63.322-37.732-1.31-54.688-9.036s-31.554-22.406-35.323-40.654c-1.625-7.865-1.434-16.625-6.39-22.944-5.882-7.5-17.7-8.522-25.937-3.722s-13.042,14.142-14.44,23.57l-3.317,5.392c.078,3.472,3.834,5.781,7.292,6.106s6.933-.627,10.4-.37c7.589.564,13.777,7.056,15.989,14.338s1.147,15.158-.746,22.529-4.6,14.562-5.678,22.095-.347,15.709,4.085,21.9c3.327,4.643,8.4,7.722,13.55,10.184a91.423,91.423,0,0,0,128.842-63.516C1028.18,369.842,1022.49,373.756,1016.42,375.782Z" transform="translate(-253.309 -148.07)" fill="#2f2e41"/>
    <path id="Path_875" data-name="Path 875" d="M747.629,671.826H719.114a6.514,6.514,0,0,1-6.445-5.6,144.982,144.982,0,0,1,0-39.047,6.515,6.515,0,0,1,6.335-5.6c8.972-4.021,18.633-4.021,28.722,0a6.439,6.439,0,0,1,4.9,2.363,6.587,6.587,0,0,1,1.359,5.491,87.659,87.659,0,0,0,0,34.539,6.587,6.587,0,0,1-1.359,5.491A6.437,6.437,0,0,1,747.629,671.826Z" transform="translate(-221.587 -177.893)" fill="#6c63ff"/>
    <path id="Path_876" data-name="Path 876" d="M744.642,636.467h-24a1.5,1.5,0,0,1,0-3h24a1.5,1.5,0,0,1,0,3Z" transform="translate(-221.345 -175.358)" fill="#fff"/>
    <path id="Path_877" data-name="Path 877" d="M744.642,648.467h-24a1.5,1.5,0,0,1,0-3h24a1.5,1.5,0,0,1,0,3Z" transform="translate(-221.345 -184.754)" fill="#fff"/>
    <path id="Path_878" data-name="Path 878" d="M744.642,660.467h-24a1.5,1.5,0,0,1,0-3h24a1.5,1.5,0,0,1,0,3Z" transform="translate(-221.345 -188.147)" fill="#fff"/>
    <path id="Path_879" data-name="Path 879" d="M406.892,353.983v0a.94.94,0,0,1,1.025-.819l154.281.411a.938.938,0,0,1,1.018.822v0a.94.94,0,0,1-1.025.819l-154.281-.411a.938.938,0,0,1-1.018-.822Z" transform="translate(-190.294 -148.855)" fill="#3f3d56"/>
    <path id="Path_880" data-name="Path 880" d="M447.691,449l-6.551,7.205a2.074,2.074,0,0,1-2.22.288,6.6,6.6,0,0,1-2.8-1.922,95.875,95.875,0,0,0-15.672-14.248,6.6,6.6,0,0,1-2.179-2.609,2.1,2.1,0,0,1,.049-2.207c.065-3.942,2.286-6.384,6.6-7.261.757-.788,2.466-.488,4,.707a159.154,159.154,0,0,1,17.717,16.108C447.979,446.492,448.435,448.185,447.691,449Z" transform="translate(-187.748 -157.129)" fill="#6c63ff"/>
    <path id="Path_881" data-name="Path 881" d="M430.854,433.494l-5.514,6.064c-.19.209-.649.1-1.025-.24s-.526-.788-.336-1l5.514-6.064c.19-.209.649-.1,1.025.24S431.044,433.285,430.854,433.494Z" transform="translate(-187.796 -156.55)" fill="#fff"/>
    <path id="Path_882" data-name="Path 882" d="M436.3,438.445l-5.514,6.064c-.19.209-.649.1-1.025-.24s-.526-.788-.336-1l5.514-6.064c.19-.209.649-.1,1.025.24S436.489,438.235,436.3,438.445Z" transform="translate(-188.39 -157.021)" fill="#fff"/>
    <path id="Path_883" data-name="Path 883" d="M441.743,443.395l-5.514,6.064c-.19.209-.649.1-1.025-.24s-.526-.788-.336-1l5.514-6.064c.19-.209.649-.1,1.025.24S441.934,443.186,441.743,443.395Z" transform="translate(-188.983 -157.491)" fill="#fff"/>
    <path id="Path_884" data-name="Path 884" d="M788.863,770.711a1.456,1.456,0,0,1-.25.843.754.754,0,0,1-.606.347H168.155c-.472,0-.855-.533-.855-1.19s.383-1.19.855-1.19H788.007a.755.755,0,0,1,.606.348A1.455,1.455,0,0,1,788.863,770.711Z" transform="translate(-10.202 -188.147)" fill="#ccc"/>
    <path id="Path_885" data-name="Path 885" d="M755.983,635.375a10.962,10.962,0,0,0,2.737-16.585L778.3,585.114l-20.211,1.139-15.5,31.8a11.021,11.021,0,0,0,13.389,17.317Z" transform="translate(-224.492 -174.352)" fill="#a0616a"/>
    <path id="Path_886" data-name="Path 886" d="M763.885,610.616,745.79,596.522l32.88-63.719L766.35,451.66a27.638,27.638,0,0,1,28.234-31.771h0A27.667,27.667,0,0,1,821.3,448.422l-3.044,92.393Z" transform="translate(-228.165 -166.612)" fill="#e6e6e6"/>
    <path id="Path_887" data-name="Path 887" d="M606.962,409.841h-61.1a6.183,6.183,0,0,1-6.176-6.176v-80.9a6.183,6.183,0,0,1,6.176-6.176h61.1a6.183,6.183,0,0,1,6.176,6.176v80.9a6.183,6.183,0,0,1-6.176,6.176Z" transform="translate(-203.461 -148.356)" fill="#e6e6e6"/>
    <path id="Path_888" data-name="Path 888" d="M602.667,404.693H550.156a5.49,5.49,0,0,1-5.484-5.484V327.215a5.49,5.49,0,0,1,5.484-5.484h52.511a5.49,5.49,0,0,1,5.484,5.484v71.994a5.49,5.49,0,0,1-5.484,5.484Z" transform="translate(-203.554 -148.53)" fill="#fff"/>
    <path id="Path_889" data-name="Path 889" d="M597.429,335.413H555.4a1.371,1.371,0,0,1,0-2.742h42.034a1.371,1.371,0,0,1,0,2.742Z" transform="translate(-203.722 -146.944)" fill="#6c63ff"/>
    <path id="Path_890" data-name="Path 890" d="M597.429,340.83H555.4a1.371,1.371,0,1,1,0-2.742h42.034a1.371,1.371,0,0,1,0,2.742Z" transform="translate(-203.722 -147.455)" fill="#6c63ff"/>
    <path id="Path_891" data-name="Path 891" d="M573.615,346.247H555.4a1.371,1.371,0,1,1,0-2.742h18.221a1.371,1.371,0,1,1,0,2.742Z" transform="translate(-202.603 -147.966)" fill="#6c63ff"/>
    <path id="Path_892" data-name="Path 892" d="M597.429,357.592H555.4a1.371,1.371,0,0,1,0-2.742h42.034a1.371,1.371,0,0,1,0,2.742Z" transform="translate(-203.722 -149.037)" fill="#e4e4e4"/>
    <path id="Path_893" data-name="Path 893" d="M597.429,363.009H555.4a1.371,1.371,0,1,1,0-2.742h42.034a1.371,1.371,0,0,1,0,2.742Z" transform="translate(-203.722 -149.549)" fill="#e4e4e4"/>
    <path id="Path_894" data-name="Path 894" d="M573.615,368.426H555.4a1.371,1.371,0,1,1,0-2.742h18.221a1.371,1.371,0,1,1,0,2.742Z" transform="translate(-202.603 -150.06)" fill="#e4e4e4"/>
    <path id="Path_895" data-name="Path 895" d="M597.429,379.772H555.4a1.371,1.371,0,0,1,0-2.742h42.034a1.371,1.371,0,0,1,0,2.742Z" transform="translate(-203.722 -151.131)" fill="#e4e4e4"/>
    <path id="Path_896" data-name="Path 896" d="M597.429,385.189H555.4a1.371,1.371,0,1,1,0-2.742h42.034a1.371,1.371,0,0,1,0,2.742Z" transform="translate(-203.722 -151.642)" fill="#e4e4e4"/>
    <path id="Path_897" data-name="Path 897" d="M573.615,390.606H555.4a1.371,1.371,0,1,1,0-2.742h18.221a1.371,1.371,0,1,1,0,2.742Z" transform="translate(-202.603 -152.154)" fill="#e4e4e4"/>
    <path id="Path_898" data-name="Path 898" d="M231.746,174.459l163.915-140.2h.26v2.058h.5L233.085,176.023Z" transform="translate(-22.233)" fill="#2f2e41"/>
    <path id="Path_899" data-name="Path 899" d="M512.212,463.055H436.844A4.446,4.446,0,0,0,432.4,467.5V514.42a4.446,4.446,0,0,0,4.441,4.441h75.368a4.446,4.446,0,0,0,4.441-4.441V467.5A4.446,4.446,0,0,0,512.212,463.055Z" transform="translate(-191.048 -162.107)" fill="#fff"/>
    <path id="Path_900" data-name="Path 900" d="M512.212,463.055H436.844A4.446,4.446,0,0,0,432.4,467.5V514.42a4.446,4.446,0,0,0,4.441,4.441h75.368a4.446,4.446,0,0,0,4.441-4.441V467.5A4.446,4.446,0,0,0,512.212,463.055Zm1.458,33.706a18.258,18.258,0,0,1-17.951,18.186c-7.647.1,4.231.138-4.992.138-21.091,0-43.083-.2-51.288-.332a4.138,4.138,0,0,1-4.052-4.121V467.5a1.462,1.462,0,0,1,1.457-1.461h75.365a1.462,1.462,0,0,1,1.461,1.457Z" transform="translate(-191.048 -162.107)" fill="#cacaca"/>
    <path id="Path_901" data-name="Path 901" d="M502.27,493H444.847a2.468,2.468,0,0,1-2.32-1.636l-8.868-24.881a2.463,2.463,0,0,1,2.316-3.29l77.013-.137h0a2.463,2.463,0,0,1,2.264,3.433l-.134-.057.134.057L504.533,491.51A2.46,2.46,0,0,1,502.27,493Z" transform="translate(-191.105 -160.654)" fill="#cacaca"/>
    <circle id="Ellipse_55" data-name="Ellipse 55" cx="6.136" cy="6.136" r="6.136" transform="translate(275.538 324.856)" fill="#3f3d56"/>
    <path id="Path_904" data-name="Path 904" d="M235.812,499.08a28.891,28.891,0,0,0,2.83-1.234c.047.072.092.145.139.216Z" transform="translate(-167.295 -162.454)" fill="#e6e6e6"/>
    <path id="Path_909" data-name="Path 909" d="M615.962,195.841h-61.1a6.183,6.183,0,0,1-6.176-6.176v-55.9a6.183,6.183,0,0,1,6.176-6.176h61.1a6.183,6.183,0,0,1,6.176,6.176v55.9a6.183,6.183,0,0,1-6.176,6.177Z" transform="translate(-204.532 -127.584)" fill="#e6e6e6"/>
    <path id="Path_910" data-name="Path 910" d="M611.667,190.693H559.156a5.49,5.49,0,0,1-5.484-5.484V138.215a5.49,5.49,0,0,1,5.484-5.484h52.511a5.49,5.49,0,0,1,5.484,5.484v46.994A5.49,5.49,0,0,1,611.667,190.693Z" transform="translate(-204.611 -127.584)" fill="#fff"/>
    <path id="Path_911" data-name="Path 911" d="M606.429,146.413H564.4a1.371,1.371,0,0,1,0-2.742h42.034a1.371,1.371,0,0,1,0,2.742Z" transform="translate(-204.753 -127.584)" fill="#6c63ff"/>
    <path id="Path_912" data-name="Path 912" d="M606.429,151.83H564.4a1.371,1.371,0,1,1,0-2.742h42.034a1.371,1.371,0,0,1,0,2.742Z" transform="translate(-204.753 -127.584)" fill="#6c63ff"/>
    <path id="Path_913" data-name="Path 913" d="M582.615,157.247H564.4a1.371,1.371,0,1,1,0-2.742h18.221a1.371,1.371,0,1,1,0,2.742Z" transform="translate(-203.602 -127.584)" fill="#6c63ff"/>
    <path id="Path_914" data-name="Path 914" d="M606.429,168.592H564.4a1.371,1.371,0,0,1,0-2.742h42.034a1.371,1.371,0,0,1,0,2.742Z" transform="translate(-204.753 -127.584)" fill="#e4e4e4"/>
    <path id="Path_915" data-name="Path 915" d="M606.429,174.009H564.4a1.371,1.371,0,0,1,0-2.742h42.034a1.371,1.371,0,0,1,0,2.742Z" transform="translate(-204.753 -127.584)" fill="#e4e4e4"/>
    <path id="Path_916" data-name="Path 916" d="M582.615,179.426H564.4a1.371,1.371,0,1,1,0-2.742h18.221a1.371,1.371,0,1,1,0,2.742Z" transform="translate(-203.602 -127.584)" fill="#e4e4e4"/>
  </g>
</svg>
