<svg xmlns="http://www.w3.org/2000/svg" xmlns:xlink="http://www.w3.org/1999/xlink" width="77" height="77" viewBox="0 0 77 77">
  <defs>
    <filter id="Oval" x="0" y="0" width="77" height="77" filterUnits="userSpaceOnUse">
      <feOffset dy="3" input="SourceAlpha"/>
      <feGaussianBlur stdDeviation="3" result="blur"/>
      <feFlood flood-opacity="0.161"/>
      <feComposite operator="in" in2="blur"/>
      <feComposite in="SourceGraphic"/>
    </filter>
  </defs>
  <g id="Linkedin" transform="translate(9 6)">
    <g transform="matrix(1, 0, 0, 1, -9, -6)" filter="url(#Oval)">
      <circle id="Oval-2" data-name="Oval" cx="29.5" cy="29.5" r="29.5" transform="translate(9 6)" fill="#007ab7"/>
    </g>
    <path id="Linkedin-2" data-name="Linkedin" d="M23.1,29.129V19.67c0-2.26-.034-5.163-3.134-5.163-3.144,0-3.615,2.463-3.615,4.994v9.627H10.32V9.672h5.772v2.666h.079A6.342,6.342,0,0,1,21.886,9.2c6.109,0,7.243,4.026,7.243,9.267V29.129Zm-16.587,0H.472V9.672H6.513V29.128h0Zm3.8-19.457h.011ZM0,3.509A3.5,3.5,0,1,1,3.5,7.017,3.51,3.51,0,0,1,0,3.509Z" transform="translate(14.927 13.574)" fill="#fff"/>
  </g>
</svg>
