<svg xmlns="http://www.w3.org/2000/svg" xmlns:xlink="http://www.w3.org/1999/xlink" width="721.923" height="625.276" viewBox="0 0 721.923 625.276">
  <defs>
    <linearGradient id="linear-gradient" x1="0.5" y1="1" x2="0.5" gradientUnits="objectBoundingBox">
      <stop offset="0" stop-color="gray" stop-opacity="0.251"/>
      <stop offset="0.54" stop-color="gray" stop-opacity="0.122"/>
      <stop offset="1" stop-color="gray" stop-opacity="0.102"/>
    </linearGradient>
  </defs>
  <g id="undraw_videographer_nnc7" transform="translate(-268.05 -10.324)">
    <ellipse id="Ellipse_43" data-name="Ellipse 43" cx="269.64" cy="9.16" rx="269.64" ry="9.16" transform="translate(268.05 617.28)" fill="#6c63ff" opacity="0.1"/>
    <g id="flowers" transform="translate(731.715 294.379)">
      <path id="Path_754" data-name="Path 754" d="M776.7,756.82s58-73.47,53.51-146.5c-1.89-30.66,5.66-61.18,22.53-86.85A237.9,237.9,0,0,1,880,489.42" transform="translate(-771.867 -430.858)" fill="none" stroke="#535461" stroke-miterlimit="10" stroke-width="2"/>
      <path id="Path_755" data-name="Path 755" d="M877.43,443.37c-4.1,10.22,2.49,47.26,2.49,47.26s30.39-22.19,34.49-32.4a19.936,19.936,0,0,0-37-14.86Z" transform="translate(-771.867 -430.858)" fill="#6c63ff"/>
      <path id="Path_756" data-name="Path 756" d="M824.14,487.66c2.11,10.8,27.78,38.31,27.78,38.31s13.45-35.14,11.34-45.94a19.929,19.929,0,1,0-39.121,7.63Z" transform="translate(-771.867 -430.858)" fill="#6c63ff"/>
      <path id="Path_757" data-name="Path 757" d="M786.65,584.86c7.27,8.26,43.31,19,43.31,19s-6.13-37.12-13.4-45.38a19.924,19.924,0,1,0-29.91,26.33Z" transform="translate(-771.867 -430.858)" fill="#6c63ff"/>
      <path id="Path_758" data-name="Path 758" d="M774.83,664.79c5.77,9.37,39.48,26.1,39.48,26.1s.23-37.63-5.54-47a19.93,19.93,0,1,0-33.94,20.9Z" transform="translate(-771.867 -430.858)" fill="#6c63ff"/>
      <path id="Path_759" data-name="Path 759" d="M890,543.55c-10.19,4.17-47.27-2.17-47.27-2.17s22-30.54,32.16-34.71A19.929,19.929,0,1,1,890,543.552Z" transform="translate(-771.867 -430.858)" fill="#6c63ff"/>
      <path id="Path_760" data-name="Path 760" d="M875,636.85c-11,.94-44.46-16.21-44.46-16.21s30.11-22.56,41.07-23.5A19.929,19.929,0,1,1,875,636.853Z" transform="translate(-771.867 -430.858)" fill="#6c63ff"/>
      <path id="Path_761" data-name="Path 761" d="M847.92,725.54c-10.65,2.77-46.55-8.47-46.55-8.47s25.86-27.32,36.51-30.1a19.93,19.93,0,0,1,10,38.57Z" transform="translate(-771.867 -430.858)" fill="#6c63ff"/>
      <path id="Path_762" data-name="Path 762" d="M877.43,443.37c-4.1,10.22,2.49,47.26,2.49,47.26s30.39-22.19,34.49-32.4a19.936,19.936,0,0,0-37-14.86Z" transform="translate(-771.867 -430.858)" opacity="0.25"/>
      <path id="Path_763" data-name="Path 763" d="M824.14,487.66c2.11,10.8,27.78,38.31,27.78,38.31s13.45-35.14,11.34-45.94a19.929,19.929,0,1,0-39.121,7.63Z" transform="translate(-771.867 -430.858)" opacity="0.25"/>
      <path id="Path_764" data-name="Path 764" d="M786.65,584.86c7.27,8.26,43.31,19,43.31,19s-6.13-37.12-13.4-45.38a19.924,19.924,0,1,0-29.91,26.33Z" transform="translate(-771.867 -430.858)" opacity="0.25"/>
      <path id="Path_765" data-name="Path 765" d="M774.83,664.79c5.77,9.37,39.48,26.1,39.48,26.1s.23-37.63-5.54-47a19.93,19.93,0,1,0-33.94,20.9Z" transform="translate(-771.867 -430.858)" opacity="0.25"/>
      <path id="Path_766" data-name="Path 766" d="M890,543.55c-10.19,4.17-47.27-2.17-47.27-2.17s22-30.54,32.16-34.71A19.929,19.929,0,1,1,890,543.552Z" transform="translate(-771.867 -430.858)" opacity="0.25"/>
      <path id="Path_767" data-name="Path 767" d="M875,636.85c-11,.94-44.46-16.21-44.46-16.21s30.11-22.56,41.07-23.5A19.929,19.929,0,1,1,875,636.853Z" transform="translate(-771.867 -430.858)" opacity="0.25"/>
      <path id="Path_768" data-name="Path 768" d="M847.92,725.54c-10.65,2.77-46.55-8.47-46.55-8.47s25.86-27.32,36.51-30.1a19.93,19.93,0,0,1,10,38.57Z" transform="translate(-771.867 -430.858)" opacity="0.25"/>
      <path id="Path_769" data-name="Path 769" d="M777.2,753.75S860,710.1,885.48,641.51c10.7-28.8,30-53.64,55.79-70.27A238.589,238.589,0,0,1,980,551.15" transform="translate(-771.867 -430.858)" fill="none" stroke="#535461" stroke-miterlimit="10" stroke-width="2"/>
      <path id="Path_770" data-name="Path 770" d="M996.3,508c-7.88,7.67-16.87,44.21-16.87,44.21s36.77-8,44.66-15.64A19.929,19.929,0,1,0,996.3,508Z" transform="translate(-771.867 -430.858)" fill="#6c63ff"/>
      <path id="Path_771" data-name="Path 771" d="M929.64,526.91c-2.45,10.73,9.87,46.28,9.87,46.28s26.53-26.67,29-37.4a19.928,19.928,0,1,0-38.854-8.881Z" transform="translate(-771.867 -430.858)" fill="#6c63ff"/>
      <path id="Path_772" data-name="Path 772" d="M856,600.58c3.3,10.5,31.88,35,31.88,35s9.44-36.42,6.14-46.92a19.93,19.93,0,1,0-38,12Z" transform="translate(-771.867 -430.858)" fill="#6c63ff"/>
      <path id="Path_773" data-name="Path 773" d="M812.78,668.87c1.48,10.9,25.51,39.85,25.51,39.85s15.46-34.3,14-45.21a19.931,19.931,0,0,0-39.5,5.36Z" transform="translate(-771.867 -430.858)" fill="#6c63ff"/>
      <path id="Path_774" data-name="Path 774" d="M967.15,604.67c-11-.31-42.34-21.14-42.34-21.14s32.47-19,43.47-18.7a19.929,19.929,0,1,1-1.13,39.842Z" transform="translate(-771.867 -430.858)" fill="#6c63ff"/>
      <path id="Path_775" data-name="Path 775" d="M915.63,683.89c-10.4-3.59-34.07-32.83-34.07-32.83s36.66-8.43,47.07-4.84a19.93,19.93,0,0,1-13,37.67Z" transform="translate(-771.867 -430.858)" fill="#6c63ff"/>
      <path id="Path_776" data-name="Path 776" d="M855,754c-10.86-1.78-39.14-26.6-39.14-26.6s34.72-14.51,45.58-12.73A19.928,19.928,0,1,1,855,754Z" transform="translate(-771.867 -430.858)" fill="#6c63ff"/>
    </g>
    <path id="Path_777" data-name="Path 777" d="M759.68,647.63h-8.87L685.93,312.7l-8.32,334.93h-9.42L657.65,313.26,594.43,647.63h-9.98l42.97-344.25,1.4-11.19,84.29-9.43,2.62,20.62Z" transform="translate(-8.653 -24.26)" fill="#464353"/>
    <rect id="Rectangle_157" data-name="Rectangle 157" width="53.65" height="33.27" transform="translate(521.158 207.538)" fill="#464353"/>
    <path id="Path_778" data-name="Path 778" d="M863.05,313.29l32.44-13.1h7.11a3.91,3.91,0,0,1,3.91,3.91v91.36a3.91,3.91,0,0,1-3.91,3.91h-7.11l-32.44-13.51Z" transform="translate(-37.413 -120.051)" fill="#464353"/>
    <rect id="Rectangle_158" data-name="Rectangle 158" width="66.33" height="64.25" transform="translate(760.396 197.151)" fill="#464353"/>
    <rect id="Rectangle_159" data-name="Rectangle 159" width="42.7" height="7.76" transform="translate(648.197 84.55)" fill="#514e7f"/>
    <rect id="Rectangle_160" data-name="Rectangle 160" width="120.19" height="87.75" transform="translate(599.61 94.6)" fill="#514e7f"/>
    <rect id="Rectangle_161" data-name="Rectangle 161" width="120.19" height="10.4" transform="translate(599.61 165.825)" opacity="0.1"/>
    <rect id="Rectangle_162" data-name="Rectangle 162" width="2.69" height="64.25" transform="translate(760.388 197.151)" opacity="0.1"/>
    <rect id="Rectangle_163" data-name="Rectangle 163" width="18.3" height="33.27" transform="translate(556.038 207.538)" opacity="0.1"/>
    <path id="Path_779" data-name="Path 779" d="M715.73,303.38H627.42l1.4-11.19,84.29-9.43Z" transform="translate(-8.512 -10.509)" opacity="0.1"/>
    <rect id="Rectangle_164" data-name="Rectangle 164" width="207.94" height="128.09" rx="10.7" transform="translate(555.396 166.023)" fill="#514e7f"/>
    <path id="Path_780" data-name="Path 780" d="M837.64,201.07h.63v72.57h-.63a5.19,5.19,0,0,1-5.19-5.19V206.26A5.19,5.19,0,0,1,837.64,201.07Z" transform="translate(-11.861 -8.02)" fill="#514e7f"/>
    <path id="Path_781" data-name="Path 781" d="M870.71,188h6.73a4.29,4.29,0,0,1,4.29,4.29v90.62a4.29,4.29,0,0,1-4.29,4.29h-6.73Z" transform="translate(-15.372 -7.832)" fill="#514e7f"/>
    <rect id="Rectangle_165" data-name="Rectangle 165" width="9.57" height="33.27" transform="translate(521.511 207.538)" opacity="0.1"/>
    <rect id="Rectangle_166" data-name="Rectangle 166" width="18.71" height="56.56" rx="7.2" transform="translate(510.862 197.256)" fill="#514e7f"/>
    <circle id="Ellipse_44" data-name="Ellipse 44" cx="59.89" cy="59.89" r="59.89" transform="translate(541.216 34.71)" fill="#464353"/>
    <circle id="Ellipse_45" data-name="Ellipse 45" cx="44.92" cy="44.92" r="44.92" transform="translate(556.154 49.68)" fill="#6c63ff"/>
    <circle id="Ellipse_46" data-name="Ellipse 46" cx="43.67" cy="43.67" r="43.67" transform="translate(665.815 52.18)" fill="#464353"/>
    <circle id="Ellipse_47" data-name="Ellipse 47" cx="32.75" cy="32.75" r="32.75" transform="translate(676.798 63.1)" fill="#6c63ff"/>
    <circle id="Ellipse_48" data-name="Ellipse 48" cx="5.75" cy="5.75" r="5.75" transform="translate(700.62 180.215)" fill="#6c63ff"/>
    <circle id="Ellipse_49" data-name="Ellipse 49" cx="5.75" cy="5.75" r="5.75" transform="translate(718.523 180.215)" fill="#6c63ff" opacity="0.5"/>
    <path id="Path_782" data-name="Path 782" d="M686.43,317.123l-.41-.779a36.966,36.966,0,0,1,7.26,3.214c-1-8.363-34.33-31.843-40.33-31.843s-12.67-9.97-12.67-9.97-17.33-2.569-20-5.293-20.67-1.136-25-.173-11-2.569-11-2.569-3.67-5.774-8.33-5.774-9.65-6.428-9.65-6.428-4.35-3.849-8.35-4.5-9-4.812-11.34-8.035-14-4.812-20.66-3.849-24.67-1.309-24.67-1.309c7.33-3.214,9.1-10.932,9.1-10.932-6.56-.327-23.8-14.262-23.8-14.262s.71,4.5,1.53,10.788L487,224.027l-.15.115a100.165,100.165,0,0,1-.15-13.473c0-.346.06-.693.08-1.049a29.29,29.29,0,0,0,9.76-29.534c-.18-.731-.39-1.443-.63-2.146a14.314,14.314,0,0,0,4,.962h.71a5.956,5.956,0,0,0,4.39-1.867h0a4.5,4.5,0,0,0,.49-.731,1.224,1.224,0,0,0,.09-.154,5.134,5.134,0,0,0,.3-.731,2.666,2.666,0,0,0,.07-.269,5.744,5.744,0,0,0,.12-.6c0-.164,0-.337,0-.51v-.375a11.062,11.062,0,0,0-1-4.292c-1.05-2.483-2.56-4.937-2.45-7.622a4.551,4.551,0,0,1,.08-.645c.28-2.107,1.43-4.061,2.12-6.092v-.087c.1-.3.18-.6.25-.895a2.135,2.135,0,0,0,.08-.269,7.847,7.847,0,0,0,.15-1.068v-.077c.26-4.023-3.11-7.535-6.93-9.161-3.42-1.463-7.33-1.857-10.46-3.849-3.57-2.261-5.53-6.178-8.17-9.421-3.84-4.715-9.85-8.238-16-7.564-3.79.414-7.23,2.329-11,3.07-5.73,1.145-11.79-.52-17.49.76a6.062,6.062,0,0,0-3.56,1.925,3.834,3.834,0,0,0-.72,1.742h0a6.4,6.4,0,0,0,0,1.751v.048a11.9,11.9,0,0,0,.31,1.646l.09.337a1.374,1.374,0,0,0,.08.337c.03.115.13.452.19.674.11.375.2.751.3,1.136v.135c.09.395.18.789.25,1.193h0a19.534,19.534,0,0,1,.32,2.521h0a11.256,11.256,0,0,1-1.53,6.852c-2.5,3.849-7.81,5.553-10.12,9.566a8.071,8.071,0,0,0-1,3.128h0a8.059,8.059,0,0,0-.05,1.1v.144a3.526,3.526,0,0,0,.09.962,1.857,1.857,0,0,0,0,.231,8.045,8.045,0,0,0,.2.847.841.841,0,0,0,.08.269,7.368,7.368,0,0,0,.4.962h0c1.07,2.146,3.09,3.917,3.51,6.246h0a.347.347,0,0,0,.05.212c.23,1.751-.52,3.464-.91,5.187a5.983,5.983,0,0,0-.12.635h0v1.28a2.281,2.281,0,0,0,0,.269v.626a1.481,1.481,0,0,0,.1.356l.07.241a3.518,3.518,0,0,0,.16.337l.11.212a3.5,3.5,0,0,0,.24.337,1.615,1.615,0,0,0,.12.154,2.682,2.682,0,0,0,.46.414c1.38.962,3.53.712,4.66,1.925a2.274,2.274,0,0,1,.32.481l.06.115a2.589,2.589,0,0,1,.19.529h0a5.08,5.08,0,0,1,0,2.194c-.4,1.925-1.25,3.676-1.7,5.562a11.532,11.532,0,0,0-.2,1.174h0a1.869,1.869,0,0,1-.05.529v.751a3.013,3.013,0,0,0,.06.731c.06.241,0,.231.06.337l.06.279a1.336,1.336,0,0,0,.11.375l.09.241c.05.135.12.269.18.4a1.651,1.651,0,0,0,.1.183,3.351,3.351,0,0,0,.36.558c1.21,1.578,3.2,2.108,5.3,2.117a17.326,17.326,0,0,0,3.54-.385c.26.587.53,1.174.82,1.742a29.941,29.941,0,0,0,5.63,7.622,6.987,6.987,0,0,1-.1.895c-.23,2.194-.51,4.552-.83,6.929-2.59-1.145-4.59-1.588-5.38-.76-3.35,3.541,0,15.763,0,15.763s-16.35,0-20.35,3.532-11.33,0-11.33,0-15,1.617-14,4.513-8,0-8,0-6.34.645-6,4.812-9.67,6.1-8.34,9-6,4.812-6,4.812-7.33-.318-4.66,3.849h0s-4,9.007-7.33,9.623-7.67,8.035-7.67,8.035-12.84,2.252-12.26,6.111-19.74,31.468-19.74,31.468-6.67,13.232-2,22.884,8,16.081,9,19.612,13.12,19.083,13.02,21.98c0,.9,3,5.774,7.09,11.952l-1.2,1.193-2.63,2.608s-8.34,19.939,1.66,20.9c8.45.808,14.52,1.4,17.6.587a4.306,4.306,0,0,0,1.4-.587l.12-.087c3.64,5.168,6.22,8.776,6.22,8.776s.36-.51,1-1.386l1,1.376s.8-1.1,2.16-2.887c-.44,8.748-.5,17.37-.5,17.37s4.34-.645,2.34,18.65,12,35.048,12,35.048v28.629h0a18.477,18.477,0,0,0,.14,1.925c.37,4.109,1.59,13.8,5.19,20.209,4.67,8.353,0,30.227,0,30.227s-.31,17.842.81,40.091c0,.606.07,1.232.1,1.848-20.22,16.263-41.91,37.82-41.91,37.82a11.215,11.215,0,0,1,3,1.3l-1.21,1.492-5.51,6.534h0l-4.26,5.062h0l6.75,20.007,7.37-2.772s4,6.669,3.16,11.192a4.72,4.72,0,0,1-1,2.242,2.781,2.781,0,0,0-.52,1.107c-1.93,7.246,6.12,38.493,18.89,39.85,0,0,4.33,1.376,5.72-2.377.67-1.809.66-4.812-.84-9.691,0,0-6.75-7.833-2.38-16.273,2.56-4.937,6.79-11.548,9.85-16.215l1.26-1.925c2.75,3.339,4.44,5.485,4.44,5.485l9.82-10.162c.21.433.42.856.64,1.261a30.008,30.008,0,0,0,2.54,4.061l6.66,25.415,2.69-.577c-.06.616-.1,1.27-.14,1.925-.22,4.561,0,10.48,2.19,14.7a9.13,9.13,0,0,0,8.93,5.379c15.5-.366,20-8.44,20-8.44V713.622l5.33-1.145s-.39-44.4-1.76-69.163c0-.549-.06-1.078-.09-1.6V641.5l34.23-35.423,2.63-1.01c22-8.363,22.34-29.909,22.34-29.909s0-11.894,2.66-21.864.34-61.753-4.66-74.609a126.917,126.917,0,0,1-6.67-27.349s5-6.736,0-12.347a24.5,24.5,0,0,1-3.5-5.5l6.51-1.03,3.75-.6,2-.327c-1,8.507-1.17,15.041,1.2,16.6,7.34,4.812,32-11.259,32-11.259-9,0-14-64.64-12.17-66.247s4.56-34,2.17-39.773S537,299.291,537,299.291l1.66-2.367h0s39.34,16.523,43.67,19.689,18-7.7,20.33-3.493,17,10.47,17,10.47,21.67-2.107,24,3.041S660,343.837,660,343.837a70.721,70.721,0,0,1,.53-8.459c.29.664.57,1.338.87,2.021,6.64,15.118,17.69,34.259,27.93,23.962C700.93,349.659,692.1,328.026,686.43,317.123ZM389.94,385.448v.183l-.08-.077Zm-7.76-74.176L377.94,354.3l-8.33,8.3-1,1.02L360,354.606s-4.34-1.925,0-5.466-7.33-11.548-7.33-11.548-.34-5.774,4-7.391,10-12.222,10-12.222l15.67-7.7h0Zm55.76,220.219a5.3,5.3,0,0,1,1-.7c1.87-1.02,3.07.1,3.69,2.059a16,16,0,0,1-.71,9.893c-2.33,5.148,3.34,25.733,3.34,25.733s-7.34,3.2-8.67,9.325a6.251,6.251,0,0,1-1,2.1c-.09-.539-.17-1.059-.25-1.559-.65-3.849-1-6.332-1-6.332a39.468,39.468,0,0,1-.67-15.109c1.06-6.188,3.2-18.756,4-23.519.2-1.155.31-1.848.32-1.925Z" transform="translate(-24.78 -112.22)" fill="url(#linear-gradient)"/>
    <path id="Path_783" data-name="Path 783" d="M484.42,221.92l2.16-1.44,6.09,12.85-2.34,2.75h-7.08s.25-7,.42-7.25S484.42,221.92,484.42,221.92Z" transform="translate(-28.801 -112.22)" fill="#464353"/>
    <path id="Path_784" data-name="Path 784" d="M442.61,731.27v27.5s-4.5,8.37-20,8.75a9.1,9.1,0,0,1-8.93-5.57c-2.16-4.38-2.41-10.52-2.19-15.25a60,60,0,0,1,.75-7.06Z" transform="translate(-27.362 -136.48)" fill="#3f3d56"/>
    <path id="Path_785" data-name="Path 785" d="M442.61,731.27v8.51l-31.12,6.92a60,60,0,0,1,.75-7.06Z" transform="translate(-27.363 -136.48)" opacity="0.1"/>
    <path id="Path_786" data-name="Path 786" d="M447.94,736.6l-39,8.67-6.66-26.34a31.893,31.893,0,0,1-2.54-4.21c-.43-.84-.85-1.73-1.25-2.66C391.23,695.45,388,665.49,386.62,640c-.07-1.29-.14-2.57-.2-3.83-1.12-23.06-.81-41.56-.81-41.56s4.67-22.67,0-31.33c-3.6-6.68-4.82-16.72-5.19-21-.1-1.27-.14-2-.14-2l.72-1.89,2.94-7.78h32.34l18.8,15.91,2.86,2.42-.32,2c-.81,4.94-2.95,18-4,24.38a42.369,42.369,0,0,0,.67,15.66s.39,2.54,1,6.57c.15,1,.32,2.06.51,3.21,2.39,14.78,6.87,41.77,8.78,48.22.53,1.77,1,6.21,1.35,12.22.08,1.2.15,2.45.22,3.76C447.55,690.58,447.94,736.6,447.94,736.6Z" transform="translate(-24.78 -136.48)" fill="#514e7f"/>
    <path id="Path_787" data-name="Path 787" d="M442.61,758.49v.28s-4.5,8.37-20,8.75a9.1,9.1,0,0,1-8.93-5.57C420.63,763.66,431.91,764.76,442.61,758.49Z" transform="translate(-27.402 -136.48)" opacity="0.1"/>
    <path id="Path_788" data-name="Path 788" d="M689.28,372.6C679,383.27,668,363.43,661.35,347.76c-3.73-8.82-6.07-16.33-6.07-16.33l27.36-11.58s1.68,2.67,3.79,6.9C692.1,338.05,700.93,360.47,689.28,372.6Z" transform="translate(-32.767 -120.281)" fill="#a1616a"/>
    <path id="Path_789" data-name="Path 789" d="M486.73,216.39a124.832,124.832,0,0,0,2.21,29.54s-55.66,6-50.66-2.66c2.93-5.08,4.83-18.49,5.89-28.74.77-7.26,1.11-12.93,1.11-12.93s53.33-21.33,45.33-3.33C488.22,203.64,487.11,210,486.73,216.39Z" transform="translate(-28.042 -112.22)" fill="#a1616a"/>
    <path id="Path_790" data-name="Path 790" d="M466.65,247.38l-7.48,89.33,34.33-5.66-6-73.67,2-19.67Z" transform="translate(-4.179 -10.02)" fill="#464353"/>
    <path id="Path_791" data-name="Path 791" d="M493.5,331.19l-14.91,2.46-19.43,3.2,1.37-16.3,6.12-73.03,7.79-3.3,5.52-2.33,9.54-4.04-2,19.67Z" transform="translate(-4.179 -10.026)" opacity="0.1"/>
    <path id="Path_792" data-name="Path 792" d="M373.73,737c-4.37,8.75,2.38,16.87,2.38,16.87,1.5,5.07,1.51,8.17.84,10-1.39,3.89-5.72,2.46-5.72,2.46-13.62-1.5-21.87-38.24-18.37-42.45S350.73,710,350.73,710l-7.37,2.87-6.75-20.74,4.26-5.25,5.51-6.78,3.73-4.6,37.25,38.87s-1.59,2.39-3.78,5.82C380.52,725,376.29,731.9,373.73,737Z" transform="translate(-24.78 -136.48)" fill="#3f3d56"/>
    <path id="Path_793" data-name="Path 793" d="M446.18,664.91l-46.44,49.81c-8.14-15.9-11.64-47.8-13.12-74.73,8.65-7.2,17-13.4,23.32-16.39,0,0,21.38-15.47,25.89-22.89,2.39,14.78,6.87,41.77,8.78,48.22C445.24,651.05,445.76,657,446.18,664.91Z" transform="translate(-24.78 -136.48)" opacity="0.1"/>
    <path id="Path_794" data-name="Path 794" d="M410.3,434.29l-54.08-8.13,2.94-7.78H391.5Z" transform="translate(0 -15.623)" opacity="0.1"/>
    <path id="Path_795" data-name="Path 795" d="M446,661.15l-47.47,50.91c-7.3-16.61-10.53-46.57-11.91-72.06-.07-1.29-.14-2.57-.2-3.83,8.73-7.28,17.18-13.54,23.52-16.56,0,0,19.95-14.43,25.38-22.1.15,1,.32,2.06.51,3.21,2.39,14.78,6.87,41.77,8.78,48.22C445.14,650.7,445.58,655.14,446,661.15Z" transform="translate(-24.78 -136.48)" opacity="0.1"/>
    <path id="Path_796" data-name="Path 796" d="M387.36,714.39s-1.59,2.39-3.78,5.82c-7.95-10.05-26.8-33.19-37.2-40.09l3.73-4.6Z" transform="translate(-24.78 -136.48)" opacity="0.1"/>
    <path id="Path_797" data-name="Path 797" d="M507.94,571.59c-2.66,10.34-2.66,22.67-2.66,22.67s-.34,22.33-22.34,31l-2.63,1-91,97.63s-33.67-44-44.67-46.67c0,0,44.33-45.67,65.33-55.67,0,0,25.34-18.33,26.67-24.66s8.67-9.67,8.67-9.67-5.67-21.33-3.34-26.67a17.14,17.14,0,0,0,.71-10.25c-.62-2-1.82-3.19-3.69-2.14a5.3,5.3,0,0,0-1,.73l-57.66-8.67V510.59s-14-16.33-12-36.33-2.34-19.33-2.34-19.33.21-33.78,3.06-36.6,30.23-15.74,30.23-15.74l85.84,15.25,3.54,16.42s3,13.06,8,18.86,0,12.79,0,12.79a135.962,135.962,0,0,0,6.67,28.35C508.33,507.61,510.61,561.26,507.94,571.59Z" transform="translate(-24.78 -136.48)" fill="#514e7f"/>
    <path id="Path_798" data-name="Path 798" d="M490.61,198.27c-2.39,5.37-3.5,11.77-3.88,18.12a31,31,0,0,1-42.56-1.86c.77-7.26,1.11-12.93,1.11-12.93S498.61,180.27,490.61,198.27Z" transform="translate(-28.151 -112.22)" opacity="0.1"/>
    <path id="Path_799" data-name="Path 799" d="M497.43,192a31,31,0,1,1-.86-7.27A31,31,0,0,1,497.43,192Z" transform="translate(-28.026 -112.22)" fill="#a1616a"/>
    <path id="Path_800" data-name="Path 800" d="M472.28,245.93S450,235.6,448.61,234.26,401,351.6,401,351.6l-13,59s69.33,29.66,84.33,25.66,16.33,0,16.33,0S504,350.26,509,342.6s-4.67-85.67-4.67-85.67L487,234.25Z" transform="translate(-24.78 -118.28)" opacity="0.1"/>
    <path id="Path_801" data-name="Path 801" d="M472.28,241.93S450,231.6,448.61,230.26,401,347.6,401,347.6l-13,59s69.33,29.66,84.33,25.66,16.33,0,16.33,0S504,346.26,509,338.6s-4.67-85.67-4.67-85.67L487,230.25Z" transform="translate(-24.78 -118.063)" opacity="0.1"/>
    <path id="Path_802" data-name="Path 802" d="M508.94,340.6c-1,1.59-2.51,6.53-4.2,13.37-1.18,4.76-2.46,10.43-3.77,16.53-5.9,27.53-12.36,63.77-12.36,63.77s-.41-1.22-3.3-1.64c-2.34-.34-6.32-.15-13,1.64-15,4-84.34-25.67-84.34-25.67l2-9,11-50s46.34-118.67,47.67-117.33c.81.81,9.47,5,16.07,8.11,4.21,2,7.6,3.55,7.6,3.55l14-11.06.77-.61,17.25,22.67S513.94,332.93,508.94,340.6Z" transform="translate(-24.78 -118.172)" fill="#6c63ff"/>
    <path id="Path_803" data-name="Path 803" d="M455.94,255.6c2,7.69-2.66,20.33-2.66,20.33s-16,39.34-20.67,57.52-31.38,54.82-31.38,54.82-3.92,3.93-9.41,9.4c-.61.61-1.25,1.24-1.89,1.9l11-50S447.27,230.9,448.6,232.24c.81.81,9.47,5,16.07,8.11C460.54,244.11,454.61,250.51,455.94,255.6Z" transform="translate(-24.78 -117.738)" opacity="0.1"/>
    <path id="Path_804" data-name="Path 804" d="M453.94,255.6c2,7.69-2.66,20.33-2.66,20.33s-16,39.34-20.67,57.52-31.38,54.82-31.38,54.82-3.92,3.93-9.41,9.4c-.65.65-1.33,1.32-2,2-10.72,10.67-25.79,25.63-30.5,30-.69.65-1.16,1.07-1.36,1.21a4.219,4.219,0,0,1-1.4.61c-3.08.84-9.15.23-17.6-.61-10-1-1.66-21.66-1.66-21.66l2.63-2.71,2.4-2.48L367.57,376l2-2.11,8.33-8.59,4.24-44.6.1-1.07s-1.24-2.83-3.15-7.15C374,300.79,364,278.23,360.34,270.94c-.42-.85-.75-1.48-1-1.87,0-.05-.05-.1-.08-.14-2.67-4.33,4.66-4,4.66-4s7.34-2,6-5,8.67-5,8.34-9.33,6-5,6-5,9,3,8,0,14-4.67,14-4.67,7.33,3.67,11.33,0S438,237.27,438,237.27s-3.35-12.67,0-16.34,28.47,16.34,28.47,16.34S451.94,247.92,453.94,255.6Z" transform="translate(-24.78 -117.643)" fill="#464353"/>
    <path id="Path_805" data-name="Path 805" d="M370.61,426.26s27.67,39,47,26.34-26-45.67-26-45.67Z" transform="translate(-24.78 -123.693)" opacity="0.1"/>
    <path id="Path_806" data-name="Path 806" d="M370.61,424.26s27.67,39,47,26.34-26-45.67-26-45.67Z" transform="translate(-24.78 -123.612)" fill="#a1616a"/>
    <path id="Path_807" data-name="Path 807" d="M503.37,445.73c2.11-18.41,8.23-46.07,3.24-54.46-2.47-4.16-4.3-12.09-5.64-20.77-.72-4.67-1.29-9.56-1.75-14.2-1.22-12.31-1.61-22.85-1.61-22.85s-12-53.52-9.67-64.52c1.46-6.88-.22-24.12-1.68-36.06l.77-.61,17.25,22.67s9.66,78,4.66,85.67c-1,1.59-2.51,6.53-4.2,13.37l9.54-4-2,19.67,6,73.67Z" transform="translate(-28.996 -118.324)" opacity="0.1"/>
    <path id="Path_808" data-name="Path 808" d="M486.58,220.48s17.24,14.45,23.8,14.78c0,0-1.77,8-9.1,11.34,0,0,18,2.38,24.67,1.35s18.33.65,20.66,4S554,259.6,558,260.26s8.35,4.67,8.35,4.67L537,308.26s-10.67,26.67-8.34,32.67-.34,39.67-2.17,41.33,3.17,68.67,12.17,68.67c0,0-24.66,16.67-32,11.67s9.34-59,2-71.34-9-57.82-9-57.82-12-53.51-9.66-64.51S486.58,220.48,486.58,220.48Z" transform="translate(-29.31 -118.065)" fill="#464353"/>
    <path id="Path_809" data-name="Path 809" d="M686.43,326.75c-8.91-2.78-22.56-2.86-25.08,21-3.73-8.82-6.07-16.33-6.07-16.33l27.36-11.58S684.32,322.52,686.43,326.75Z" transform="translate(-32.67 -119.92)" opacity="0.1"/>
    <path id="Path_810" data-name="Path 810" d="M550,262.93l16.35,2s5,6.67,9.65,6.67,8.33,6,8.33,6,6.67,3.66,11,2.66,22.33-2.65,25,.18,20,5.49,20,5.49S647,296.26,653,296.26s39.33,24.34,40.33,33c0,0-33-21-33.33,25.17,0,0-14-12.5-16.34-17.83s-24-3.16-24-3.16-14.66-6.51-17-10.84-16,6.9-20.33,3.61-43.67-20.41-43.67-20.41l-12.17-22.87Z" transform="translate(-31.076 -118.323)" fill="#464353"/>
    <circle id="Ellipse_50" data-name="Ellipse 50" cx="2.83" cy="2.83" r="2.83" transform="translate(443.24 178.948)" fill="#3f3d56"/>
    <circle id="Ellipse_51" data-name="Ellipse 51" cx="2.83" cy="2.83" r="2.83" transform="translate(440.47 235.812)" fill="#3f3d56"/>
    <circle id="Ellipse_52" data-name="Ellipse 52" cx="2.83" cy="2.83" r="2.83" transform="translate(443.24 205.883)" fill="#3f3d56"/>
    <circle id="Ellipse_53" data-name="Ellipse 53" cx="2.83" cy="2.83" r="2.83" transform="translate(435.242 265.74)" fill="#3f3d56"/>
    <path id="Path_811" data-name="Path 811" d="M377,763.92c-1.39,3.89-5.72,2.46-5.72,2.46-13.62-1.5-21.87-38.24-18.37-42.45S350.73,710,350.73,710l-7.37,2.87-6.75-20.74,4.26-5.25c4.24,7.35,10.31,17.92,11.74,20.62a37.73,37.73,0,0,1,3.75,18C356.13,732,363.67,763.08,377,763.92Z" transform="translate(-24.78 -136.48)" opacity="0.1"/>
    <path id="Path_812" data-name="Path 812" d="M496.57,184.69c-.68-.23-1.36-.5-2-.77-2.29-.93-4.7-2-6.09-4-1.27-1.86-1.68-4.48-3.66-5.54-2.28-1.22-5,.43-7.47,1-2.94.69-6-.13-8.86-1.18-4.26-1.57-10.21-4.46-14.58-1.47-3.4,2.32-2.08,7.24-2.95,10.75-1.35,5.45-7.14,9-8.23,14.51-.49,2.43-.17,5.4-2.14,6.91a5.1,5.1,0,0,1-1.92.84,31,31,0,1,1,57.93-21Z" transform="translate(-28.023 -112.22)" opacity="0.1"/>
    <path id="Path_813" data-name="Path 813" d="M468.47,172.17c2.83,1.05,5.91,1.87,8.86,1.17,2.51-.59,5.18-2.24,7.46-1,2,1.07,2.4,3.68,3.66,5.54,1.39,2,3.8,3.12,6.1,4a17.33,17.33,0,0,0,5.43,1.52,6.15,6.15,0,0,0,5.1-1.93c1.78-2.15,1.24-5.37.18-7.94s-2.56-5.13-2.45-7.91c.13-3.3,2.52-6.17,2.72-9.46.26-4.17-3.11-7.81-6.93-9.5-3.42-1.51-7.33-1.93-10.46-4-3.57-2.34-5.53-6.4-8.17-9.76-3.84-4.89-9.85-8.54-16-7.84-3.79.43-7.23,2.41-11,3.18-5.73,1.19-11.79-.54-17.49.79a6,6,0,0,0-3.56,1.95c-1.4,1.88-.68,4.51-.06,6.77,1.11,4.07,1.58,8.68-.63,12.26-2.5,4.05-7.81,5.76-10.12,9.92a8.8,8.8,0,0,0-.23,8c1.1,2.3,3.23,4.17,3.56,6.7.23,1.82-.52,3.59-.91,5.37s-.28,4,1.19,5,3.53.75,4.66,2a4,4,0,0,1,.53,3.44c-.4,2-1.25,3.81-1.7,5.77a7.07,7.07,0,0,0,.77,5.77c1.94,2.62,5.86,2.46,9,1.76a6.27,6.27,0,0,0,2.53-1c2-1.51,1.65-4.48,2.14-6.91,1.09-5.5,6.88-9.07,8.23-14.51.87-3.51-.45-8.44,2.95-10.76C458.25,167.71,464.21,170.6,468.47,172.17Z" transform="translate(-27.783 -112.22)" fill="#464353"/>
    <path id="Path_814" data-name="Path 814" d="M463.61,533.93S495,553.93,496,561.6Z" transform="translate(-28.504 -128.269)" opacity="0.1"/>
    <path id="Path_815" data-name="Path 815" d="M462,549.93s36,17.33,34,23.33Z" transform="translate(-28.478 -128.777)" opacity="0.1"/>
    <path id="Path_816" data-name="Path 816" d="M459.61,565.26s20.34,10.67,21.67,17Z" transform="translate(-28.362 -129.199)" opacity="0.1"/>
    <path id="Path_817" data-name="Path 817" d="M468.28,589.26s13.33,11.67,16,8.67S468.28,589.26,468.28,589.26Z" transform="translate(-28.52 -129.901)" opacity="0.1"/>
    <path id="Path_818" data-name="Path 818" d="M449.61,596.6S460,613.26,455,614.26,449.61,596.6,449.61,596.6Z" transform="translate(-28.079 -130.422)" opacity="0.1"/>
    <path id="Path_819" data-name="Path 819" d="M404,300.6s-17.67,10.66-12.34,13.33S404,300.6,404,300.6Z" transform="translate(-24.78 -119.013)" opacity="0.1"/>
    <path id="Path_820" data-name="Path 820" d="M404,261.26s-18,33-9.67,30.67S404,261.26,404,261.26Z" transform="translate(-24.78 -117.659)" opacity="0.1"/>
    <path id="Path_821" data-name="Path 821" d="M595.28,294.26s-11,12.94-9,20Z" transform="translate(-30.971 -118.837)" opacity="0.1"/>
    <path id="Path_822" data-name="Path 822" d="M624,300.6s-16.51,14.66-14.09,16.33Z" transform="translate(-31.517 -119.042)" opacity="0.1"/>
    <path id="Path_823" data-name="Path 823" d="M634.28,318.61s-1.67,9.64,1,10Z" transform="translate(-31.903 -119.657)" opacity="0.1"/>
    <path id="Path_824" data-name="Path 824" d="M454.11,522c-4.25,5.5-4.25,15.25-6.17,19.25-1.05,2.2-3.39,6-5.29,9.08-.62-2-1.82-3.19-3.69-2.14-1.23-9.17-3.4-25-4.1-28.19-1-4.5,10-16.5,10-16.5s10.75,2.25,13.5,7.75S458.36,516.51,454.11,522Z" transform="translate(-27.842 -127.554)" opacity="0.05"/>
    <path id="Path_825" data-name="Path 825" d="M398.61,406.27c-12,1.66-34.33,33.66-34.33,33.66s-2.93-4.26-7-10.21c-5.12-7.55-12-17.84-17-25.64l29.3-30.22,5.33,5.74s10.34,10.33,10.34,12.33c0,.78,2,3.15,4.54,5.74C393.68,401.7,398.61,406.27,398.61,406.27Z" transform="translate(-24.78 -122.669)" opacity="0.1"/>
    <path id="Path_826" data-name="Path 826" d="M360.34,270.94c-.42-.85-.75-1.48-1-1.87l12.92.86,6.85,42.52C374,300.79,364,278.23,360.34,270.94Z" transform="translate(-24.78 -118.084)" opacity="0.1"/>
    <path id="Path_827" data-name="Path 827" d="M387.8,399.7c-10.72,10.67-25.79,25.63-30.5,30-.69.65-1.16,1.07-1.36,1.21a4.219,4.219,0,0,1-1.4.61c-4.71-6.92-11.43-16.89-16.63-25l2.4-2.48L367.57,376l3.37,3.63s10.34,10.33,10.34,12.33C381.28,392.92,384.51,396.4,387.8,399.7Z" transform="translate(-24.78 -122.571)" opacity="0.1"/>
    <path id="Path_828" data-name="Path 828" d="M374.28,269.93l-15-1s-4,9.33-7.33,10-7.67,8.33-7.67,8.33S331.44,289.6,332,293.6s-19.74,32.61-19.74,32.61-6.67,13.72-2,23.72,8,16.67,9,20.33S332.1,389.93,332,392.93s30.26,47,30.26,47,22.33-32,34.33-33.67c0,0-13.33-12.33-13.33-14.33S373,379.6,373,379.6l-13-14s-4.34-2,0-5.67-7.33-12-7.33-12-.34-6,4-7.67,10-12.66,10-12.66l15.67-8Z" transform="translate(-24.78 -119.641)" fill="#464353"/>
    <path id="Path_829" data-name="Path 829" d="M317,336.26s18-3.66,18.33-1.33S317,336.26,317,336.26Z" transform="translate(-24.78 -120.152)" opacity="0.1"/>
    <path id="Path_830" data-name="Path 830" d="M332,354.43s15.26,2,14.59,5.26S332,354.43,332,354.43Z" transform="translate(-24.78 -120.962)" opacity="0.1"/>
    <path id="Path_831" data-name="Path 831" d="M344.61,297.76s14.67,20.77,16.67,16.47Z" transform="translate(-24.78 -118.941)" opacity="0.1"/>
    <g id="Group_10" data-name="Group 10" transform="translate(392.257 20.61)" opacity="0.1">
      <path id="Path_832" data-name="Path 832" d="M432.76,143a22.42,22.42,0,0,0-.9-7.17,22.216,22.216,0,0,1-.66-3,12.29,12.29,0,0,0,.66,5,25.787,25.787,0,0,1,.9,5.17Z" transform="translate(-420.04 -132.83)"/>
      <path id="Path_833" data-name="Path 833" d="M502.89,165c.39-3,2.45-5.73,2.64-8.8a7.78,7.78,0,0,0-.06-1.53c-.39,3.1-2.54,5.85-2.66,9a7.48,7.48,0,0,0,.08,1.33Z" transform="translate(-420.04 -132.83)"/>
      <path id="Path_834" data-name="Path 834" d="M505.08,179.5a6.15,6.15,0,0,1-5.1,1.93,17.33,17.33,0,0,1-5.43-1.52c-2.3-.93-4.71-2-6.1-4-1.27-1.86-1.68-4.47-3.66-5.54-2.28-1.22-5,.43-7.47,1-2.94.7-6-.12-8.85-1.17-4.26-1.57-10.22-4.46-14.59-1.48-3.4,2.32-2.08,7.25-2.95,10.76-1.35,5.44-7.14,9-8.23,14.51-.49,2.43-.17,5.4-2.14,6.91a6.26,6.26,0,0,1-2.54,1c-3.18.7-7.1.86-9-1.76a5.35,5.35,0,0,1-1-2.55,6.32,6.32,0,0,0,1,4.55c1.94,2.62,5.86,2.46,9,1.76a6.26,6.26,0,0,0,2.54-1c2-1.51,1.65-4.48,2.14-6.91,1.09-5.5,6.88-9.07,8.23-14.51.87-3.51-.45-8.44,2.95-10.76,4.37-3,10.33-.09,14.59,1.48,2.83,1.05,5.91,1.87,8.85,1.17,2.52-.59,5.19-2.24,7.47-1,2,1.07,2.39,3.68,3.66,5.54,1.39,2,3.8,3.12,6.1,4a17.33,17.33,0,0,0,5.43,1.52,6.15,6.15,0,0,0,5.1-1.93,5.91,5.91,0,0,0,1.08-4.59,5,5,0,0,1-1.08,2.59Z" transform="translate(-420.04 -132.83)"/>
      <path id="Path_835" data-name="Path 835" d="M424.44,172.67c-.33-2.53-2.46-4.4-3.56-6.7a8.5,8.5,0,0,1-.78-2.75,8.71,8.71,0,0,0,.78,4.75c1.07,2.23,3.09,4.07,3.51,6.48a6.24,6.24,0,0,0,.05-1.78Z" transform="translate(-420.04 -132.83)"/>
      <path id="Path_836" data-name="Path 836" d="M430,188.29a3.8,3.8,0,0,0-.57-3.17c-1.13-1.29-3.28-1-4.66-2a3.5,3.5,0,0,1-1.31-2.38c-.22,1.63,0,3.43,1.31,4.38s3.53.75,4.66,2A2.73,2.73,0,0,1,430,188.29Z" transform="translate(-420.04 -132.83)"/>
    </g>
  </g>
</svg>
