<svg xmlns="http://www.w3.org/2000/svg" viewBox="27.4 31.88 71.17 68.93" width="163"><defs><linearGradient id="a" x1="17.1" y1="0" x2="17.1" y2="36.2" gradientUnits="userSpaceOnUse"><stop offset="0" stop-color="#55739c"/><stop offset="1" stop-color="#2f5088"/></linearGradient><linearGradient id="b" x1="14.2" y1="0" x2="14.2" y2="25.8" gradientUnits="userSpaceOnUse"><stop offset="0" stop-color="#fff" stop-opacity="0"/><stop offset="1" stop-color="#6fa4ff"/></linearGradient><linearGradient id="c" x1="10.5" y1="0" x2="10.5" y2="6" gradientUnits="userSpaceOnUse"><stop offset="0" stop-color="#2aa8ff"/><stop offset=".5" stop-color="#23ddff"/><stop offset="1" stop-color="#1dbee8"/></linearGradient><linearGradient id="d" x1="0" y1="-8.4" x2="0" y2="8.4" gradientUnits="userSpaceOnUse"><stop offset="0" stop-color="#2db8f7"/><stop offset="1" stop-color="#449ffa"/></linearGradient><linearGradient id="e" x1="-1.3" y1="0" x2="-4.4" y2="15.5" gradientUnits="userSpaceOnUse"><stop offset="0" stop-color="#2db8f7"/><stop offset="1" stop-color="#449ffa"/></linearGradient><linearGradient id="f" x1=".5" y1=".1" x2=".5" y2="1.1"><stop offset="0" stop-color="#5b79a2"/><stop offset="1" stop-color="#2e4469"/></linearGradient><linearGradient id="g" x1=".1" y1=".1" x2=".8" y2="1.1"><stop offset="0" stop-color="#5b79a2"/><stop offset="1" stop-color="#2e4469"/></linearGradient><linearGradient id="h" x1=".2" y1=".7" x2=".5" y2="1"><stop offset="0" stop-color="#223c6f"/><stop offset="1" stop-color="#0f1c3c"/></linearGradient><linearGradient id="i" x1=".6" y1=".2" x2=".5" y2="1"><stop offset="0" stop-color="#fa4584"/><stop offset="1" stop-color="#f3214d"/></linearGradient><linearGradient id="j" x1=".2" y1=".7" x2=".5" y2="1"><stop offset="0" stop-color="#223c6f"/><stop offset="1" stop-color="#0f1c3c"/></linearGradient><linearGradient id="k" x1=".3" y1=".3" x2=".5" y2=".7"><stop offset="0" stop-color="#5b79a2"/><stop offset="1" stop-color="#2e4469"/></linearGradient><linearGradient id="l" x1="27.9" y1="20" x2="28.4" y2="43.5" gradientUnits="userSpaceOnUse"><stop offset="0" stop-color="#55739c"/><stop offset="1" stop-color="#2f5088"/></linearGradient><linearGradient id="m" x1="21.6" y1="0" x2="21.6" y2="4" gradientUnits="userSpaceOnUse"><stop offset="0" stop-color="#309bff" stop-opacity="0"/><stop offset="1" stop-color="#0086ff"/></linearGradient><linearGradient id="n" x1="5.6" y1="5.6" x2="33.1" y2="8.6" gradientUnits="userSpaceOnUse"><stop offset="0" stop-color="#309bff" stop-opacity="0"/><stop offset="1" stop-color="#0086ff"/></linearGradient><linearGradient id="o" x1="-2.4" y1="4.9" x2="10.5" y2="15.4" gradientUnits="userSpaceOnUse"><stop offset="0" stop-color="#309bff" stop-opacity="0"/><stop offset="1" stop-color="#0086ff"/></linearGradient></defs><ellipse rx="22.9" ry="2.7" fill="#e6e6e6" transform="translate(57.3 98.1)"/><g transform="translate(40.1 31.9)"><rect width="34.1" height="36.2" fill="#315082" rx="8"/><rect width="34.1" height="32.2" fill="url(#a)" rx="8"/><rect width="28.3" height="25.8" fill="#1b283e" rx="6" transform="translate(2.9 4.1)"/><rect width="28.3" height="25.8" fill="#1b283e" stroke="url(#b)" rx="6" stroke-width=".3" transform="translate(2.9 4.1)"/><rect width="21" height="6" fill="url(#c)" rx="3" filter="drop-shadow(0px 0px 2px rgba(1,200,236,0.80)) drop-shadow(0px 0px 4px rgba(0,0,0,0.50))" transform="translate(6.6 8.9)"/><circle fill="#3baafa" transform="translate(7.2 2.2)" r="1.2"/></g><g transform="translate(39.2 35.7)" fill-opacity=".4"><circle fill="url(#d)" transform="translate(8.3 8.4)" r="8.4"/><path d="M0 0c1.1-.5-7.3 12.2-7.3 12.2s3.4 3.4 3.9 2.8c.5-.7 7.5-13.7 8-13.6" fill="url(#e)" transform="translate(8.4 .6)"/></g><g transform="translate(60.2 35.7)" fill-opacity=".4"><circle fill="url(#d)" transform="translate(8.3 8.4)" r="8.4"/><path d="M0 0c1.1-.5-7.3 12.2-7.3 12.2s3.4 3.4 3.9 2.8c.5-.7 7.5-13.7 8-13.6" fill="url(#e)" transform="translate(8.4 .6)"/></g><path d="M68.6 51.3c-4.1 0-7.5-3.4-7.5-7.5s3.4-7.5 7.5-7.5c4.2 0 7.6 3.4 7.6 7.5s-3.4 7.5-7.6 7.5zm-20.9 0c-4.2 0-7.6-3.4-7.6-7.5s3.4-7.5 7.6-7.5c4.1 0 7.5 3.4 7.5 7.5s-3.4 7.5-7.5 7.5zm28.9-12.1c-.6-.7-1.8-1.6-2.6-2.2-.1-.1-.3-.3-.5-.4-1.4-.9-3.1-1.4-4.9-1.4-2.4 0-4.5.9-6.1 2.5-.8.7-1.4 1.5-2.1 2.2-.9 1-1.4.5-2.3.5-.8 0-1.3.5-2.2-.5-.7-.7-1.3-1.5-2.1-2.2-1.6-1.6-3.8-2.5-6.2-2.5-1.8 0-3.5.5-4.8 1.4 0 0-.4.3-.6.4-.7.6-1.9 1.5-2.5 2.2-1 1.1-3 1.2-3 1.2v2.2s1.2-.1 1.6.4c.2.2.5 1.5.9 2.9.1.5.3 1 .5 1.4.2.5.4.9.7 1.2 1.5 2.4 4.2 3.9 7.3 3.9 3.5 0 6.5-2.1 7.9-5v-.1c.6-1 1.3-3.9 1.5-4.4.3-.4 1-.5 1-.5s.8.1 1.1.5c.2.5.9 3.4 1.5 4.4v.1c1.4 2.9 4.4 5 7.9 5 3.1 0 5.7-1.5 7.3-3.9.3-.3.5-.7.7-1.2.2-.4.3-.9.5-1.4.4-1.4.6-2.7.8-2.9.4-.5 1.6-.4 1.6-.4v-2.2s-2-.1-2.9-1.2z" stroke="#1b283e" stroke-width="1.1" fill="#1b283e"/><g transform="translate(83.4 45.4)"><path d="M23.6 35.1v10.4H21.5V35.1h2.1z" fill="url(#f)" fill-rule="evenodd" transform="scale(-1 1) rotate(-30 -21.04 80.762)"/><path d="M13 32.3L10.3 35l3.2 3.2c.7.7 1.9.7 2.7 0 .7-.7.7-1.9 0-2.7L13 32.3z" fill="url(#g)" fill-rule="evenodd" transform="scale(-1 1) rotate(-30 -27.047 67.353)"/><path d="M30 29.9L26.2 26 15.4 38.1c-.6.7-.6 1.8.1 2.5.7.6 1.8.7 2.5 0l12-10.7z" fill="url(#h)" transform="scale(-1 1) rotate(-30 -26.212 87.376)"/><g transform="translate(.8 -2)"><circle fill="url(#i)" transform="scale(-1 1) rotate(-30 10.23 17.773)" r="5.5"/><path d="M9.756 2.77C7.245 1.32 4.103 2.16 2.703 4.586c-1.25 2.165-.741 4.884 1 6.467a5.127 5.127 0 01.575-3.594 5.164 5.164 0 017.103-1.904c.26.15.556.437.816.587-.23-1.403-1.142-2.622-2.44-3.372z" fill="#f94167" opacity=".66" style="mix-blend-mode:soft-light"/></g><path d="M18.4 14.1l-4.9 4.3c-.3.3-.7.3-1 0l-3.1-3.1c-.2-.2-.2-.6 0-.9l4.3-4.9c.3-.3.8-.4 1.1-.1l3.6 3.7c.3.3.3.8 0 1z" fill="url(#g)" fill-rule="evenodd" transform="scale(-1 1) rotate(-30 8.449 63.264)"/><circle fill="url(#j)" transform="scale(-1 1) rotate(-30 34.424 21.499)" r="1"/></g><g fill="none" fill-rule="evenodd"><path d="M40.1 70.5h34.2c2.1 0 3.8 1.6 3.8 3.7 0 .2 0 .4-.1.6l-2.7 17c-.6 3.6-3.7 6.3-7.4 6.3H46.5c-3.6 0-6.8-2.7-7.4-6.3l-2.7-17c-.3-2 1.1-4 3.2-4.3h.5z" fill="#1b283e"/><path d="M3.4 39.9h37.7c2.2 0 3.9 1.7 3.9 3.9v.6l-2.9 16.4c-.7 3.7-3.9 6.4-7.7 6.4H10.1c-3.8 0-7-2.7-7.6-6.4L-.4 44.4c-.4-2.1 1-4.1 3.1-4.4.2-.1.5-.1.7-.1z" fill="url(#k)" transform="translate(35.1 28.2)"/></g><g transform="translate(27.4 54.4)"><rect width="60" height="37" fill="url(#l)" rx="4"/><rect width="60" height="37.8" fill="url(#a)" rx="4" transform="translate(0 -2.8)"/><g fill="none" stroke-linecap="square" stroke-width=".4"><path d="M0 0h18v4h12.2V0h13" stroke="url(#m)" transform="translate(5.7 17.2)"/><path d="M0 0v13.6h16.4V1.1h13.9v-5.6h10.4" stroke="url(#n)" transform="translate(10.1 12.7)"/><path d="M0 0v8h11v7.4h10" stroke="url(#o)" transform="translate(21.1 7.9)"/></g><path d="M26.887 13.43a.505.505 0 00-.265.133l-.067.066a.598.598 0 000 .708l.067.067 1.018 1.018a.561.561 0 00.797 0c.199-.2.199-.553-.022-.775l-.355-.354 4.14-1.04-1.041 4.139-1.55-1.55c-.22-.221-.575-.221-.774-.022a.561.561 0 000 .797l2.191 2.191c.044.044.11.11.177.133.2.11.487.088.664-.089a.47.47 0 00.155-.332l1.483-5.865a.531.531 0 000-.265v-.045a.568.568 0 00-.708-.398z" fill="#fff" fill-rule="evenodd"/><path d="M30.874 15.33l-2.362 2.36c-.231.232-.633.248-.869.012-.214-.215-.199-.616.033-.848l2.361-2.361c.255-.255.633-.247.847-.032a.605.605 0 01-.01.868zM27.308 18.631l-.244.243a.481.481 0 01-.664 0c-.177-.177-.154-.464.023-.641l.243-.244c.2-.199.487-.221.664-.044.177.177.177.487-.022.686z" fill="#53b5ff"/></g></svg>