<svg xmlns="http://www.w3.org/2000/svg" xmlns:xlink="http://www.w3.org/1999/xlink" width="77" height="77" viewBox="0 0 77 77">
  <defs>
    <filter id="Oval" x="0" y="0" width="77" height="77" filterUnits="userSpaceOnUse">
      <feOffset dy="3" input="SourceAlpha"/>
      <feGaussianBlur stdDeviation="3" result="blur"/>
      <feFlood flood-opacity="0.161"/>
      <feComposite operator="in" in2="blur"/>
      <feComposite in="SourceGraphic"/>
    </filter>
  </defs>
  <g id="Group_1879" data-name="Group 1879" transform="translate(-331 -4646)">
    <g transform="matrix(1, 0, 0, 1, 331, 4646)" filter="url(#Oval)">
      <circle id="Oval-2" data-name="Oval" cx="29.5" cy="29.5" r="29.5" transform="translate(9 6)" fill="#2aa3ef"/>
    </g>
    <path id="Twitter" d="M28.883,3.424c-1.062.471-2.206.144-3.4.288a5.943,5.943,0,0,0,2.6-3.277,11.842,11.842,0,0,1-3.764,1.437A5.929,5.929,0,0,0,14.069,5.924a5.991,5.991,0,0,0,.155,1.351A16.821,16.821,0,0,1,2.012,1.085,5.931,5.931,0,0,0,3.845,8.994a5.876,5.876,0,0,1-2.683-.741v.075a5.927,5.927,0,0,0,4.753,5.809,5.916,5.916,0,0,1-1.562.208,5.829,5.829,0,0,1-1.115-.107,5.935,5.935,0,0,0,5.536,4.115,11.9,11.9,0,0,1-7.361,2.535A11.944,11.944,0,0,1,0,20.805a16.769,16.769,0,0,0,9.084,2.662c10.9,0,16.859-9.027,16.859-16.856,0-.258-.007-.511-.017-.766a12.044,12.044,0,0,0,2.957-3.066v.644Z" transform="translate(356.604 4669.277)" fill="#fff"/>
  </g>
</svg>
